<?xml version="1.0" encoding="UTF-8" standalone="no"?>
<svg
   xmlns:dc="http://purl.org/dc/elements/1.1/"
   xmlns:cc="http://creativecommons.org/ns#"
   xmlns:rdf="http://www.w3.org/1999/02/22-rdf-syntax-ns#"
   xmlns:svg="http://www.w3.org/2000/svg"
   xmlns="http://www.w3.org/2000/svg"
   xmlns:sodipodi="http://sodipodi.sourceforge.net/DTD/sodipodi-0.dtd"
   xmlns:inkscape="http://www.inkscape.org/namespaces/inkscape"
   width="1920.0px"
   height="1080.0px"
   viewBox="0 0 1920.0 1080.0"
   version="1.1"
   id="SVGRoot"
   sodipodi:docname="JournalEntry.svg"
   inkscape:version="1.0.1 (3bc2e813f5, 2020-09-07)">
  <defs
     id="defs28">
    <filter
       style="color-interpolation-filters:sRGB;"
       inkscape:label="Drop Shadow"
       id="filter1152">
      <feFlood
         flood-opacity="0.498039"
         flood-color="rgb(0,0,0)"
         result="flood"
         id="feFlood1142" />
      <feComposite
         in="flood"
         in2="SourceGraphic"
         operator="in"
         result="composite1"
         id="feComposite1144" />
      <feGaussianBlur
         in="composite1"
         stdDeviation="2"
         result="blur"
         id="feGaussianBlur1146" />
      <feOffset
         dx="0"
         dy="3.04168"
         result="offset"
         id="feOffset1148" />
      <feComposite
         in="SourceGraphic"
         in2="offset"
         operator="over"
         result="composite2"
         id="feComposite1150" />
    </filter>
    <filter
       style="color-interpolation-filters:sRGB;"
       inkscape:label="Drop Shadow"
       id="filter1293">
      <feFlood
         flood-opacity="0.498039"
         flood-color="rgb(0,0,0)"
         result="flood"
         id="feFlood1283" />
      <feComposite
         in="flood"
         in2="SourceGraphic"
         operator="in"
         result="composite1"
         id="feComposite1285" />
      <feGaussianBlur
         in="composite1"
         stdDeviation="2"
         result="blur"
         id="feGaussianBlur1287" />
      <feOffset
         dx="1.5"
         dy="3.04168"
         result="offset"
         id="feOffset1289" />
      <feComposite
         in="SourceGraphic"
         in2="offset"
         operator="over"
         result="composite2"
         id="feComposite1291" />
    </filter>
  </defs>
  <sodipodi:namedview
     id="base"
     pagecolor="#ffffff"
     bordercolor="#666666"
     borderopacity="1.0"
     inkscape:pageopacity="0.0"
     inkscape:pageshadow="2"
     inkscape:zoom="0.5"
     inkscape:cx="851.39864"
     inkscape:cy="590.95335"
     inkscape:document-units="px"
     inkscape:current-layer="layer3"
     inkscape:document-rotation="0"
     showgrid="false"
     inkscape:window-width="1850"
     inkscape:window-height="980"
     inkscape:window-x="35"
     inkscape:window-y="35"
     inkscape:window-maximized="0"
     inkscape:snap-bbox="true"
     inkscape:bbox-nodes="false"
     inkscape:bbox-paths="false"
     inkscape:snap-bbox-edge-midpoints="false"
     inkscape:snap-bbox-midpoints="false"
     inkscape:snap-page="true"
     inkscape:snap-intersection-paths="true"
     showguides="false"
     inkscape:snap-text-baseline="true">
    <sodipodi:guide
       position="1603.7672,993.34332"
       orientation="164.64606,0"
       id="guide933" />
    <sodipodi:guide
       position="1603.7672,828.69727"
       orientation="0,273.08142"
       id="guide935" />
    <sodipodi:guide
       position="1876.8486,828.69727"
       orientation="-164.64606,0"
       id="guide937" />
    <sodipodi:guide
       position="1876.8486,993.34332"
       orientation="0,-273.08142"
       id="guide939" />
  </sodipodi:namedview>
  <metadata
     id="metadata31">
    <rdf:RDF>
      <cc:Work
         rdf:about="">
        <dc:format>image/svg+xml</dc:format>
        <dc:type
           rdf:resource="http://purl.org/dc/dcmitype/StillImage" />
        <dc:title />
      </cc:Work>
    </rdf:RDF>
  </metadata>
  <g
     inkscape:groupmode="layer"
     id="layer3"
     inkscape:label="JournalEntry">
    <rect
       style="fill:#303f9f;fill-opacity:1;stroke-width:4.43356;stop-color:#000000"
       id="rect41"
       width="359.38434"
       height="993.34332"
       x="91.675598"
       y="86.656677"
       ry="4.8106602e-05"
       inkscape:label="Boundary" />
    <rect
       style="fill:#f5f5f5;fill-opacity:1;stroke-width:8.5548;stop-color:#000000"
       id="rect866"
       width="1109.5558"
       height="993.34332"
       x="451.05994"
       y="86.656677"
       ry="0"
       inkscape:label="EntryPage" />
    <rect
       style="fill:#1a237e;fill-opacity:1;stroke-width:10;stop-color:#000000"
       id="rect868"
       width="359.38431"
       height="993.34332"
       x="1560.6157"
       y="86.656677"
       inkscape:label="MetaPage" />
    <rect
       style="fill:#fafafa;fill-opacity:1;stroke-width:7.6885;stop-color:#000000"
       id="rect866-3"
       width="896.21661"
       height="993.34332"
       x="557.72961"
       y="86.656677"
       ry="0"
       inkscape:label="EntryPage" />
    <rect
       style="fill:#303f9f;fill-opacity:1;stroke-width:9.13373;stop-color:#000000"
       id="rect868-6"
       width="359.38431"
       height="828.69727"
       x="1560.6157"
       y="251.30273"
       inkscape:label="MetaPage" />
    <rect
       style="fill:#7986cb;fill-opacity:1;stroke-width:7.09453;stop-color:#000000"
       id="rect868-6-7"
       width="359.38431"
       height="499.97394"
       x="1560.6157"
       y="580.02606"
       inkscape:label="MetaPage" />
    <rect
       style="fill:#ff6600;fill-opacity:1;stroke-width:10;stop-color:#000000"
       id="rect915"
       width="34.249542"
       height="234.65804"
       x="485.13721"
       y="86.656677" />
    <text
       xml:space="preserve"
       style="font-style:normal;font-weight:normal;font-size:21.3333px;line-height:1.25;font-family:sans-serif;fill:#fafafa;fill-opacity:1;stroke:none"
       x="1603.7672"
       y="181.09714"
       id="text919"><tspan
         sodipodi:role="line"
         id="tspan917"
         x="1603.7672"
         y="181.09714">Name</tspan></text>
    <rect
       style="fill:#fafafa;fill-opacity:1;stroke-width:8.03531;stop-color:#000000"
       id="rect941"
       width="273.08139"
       height="1.8952677"
       x="1603.7672"
       y="-213.07185"
       transform="scale(1,-1)" />
    <text
       xml:space="preserve"
       style="font-style:normal;font-weight:normal;font-size:26.6667px;line-height:1.25;font-family:sans-serif;fill:#fafafa;fill-opacity:1;stroke:none"
       x="1603.7672"
       y="206.28145"
       id="text945"><tspan
         sodipodi:role="line"
         id="tspan943"
         x="1603.7672"
         y="206.28145">My Trip to Xinmin</tspan></text>
    <text
       xml:space="preserve"
       style="font-style:normal;font-weight:normal;font-size:29.3333px;line-height:1.25;font-family:sans-serif;fill:#fafafa;fill-opacity:1;stroke:none"
       x="1709.6252"
       y="312.79593"
       id="text949"><tspan
         sodipodi:role="line"
         id="tspan947"
         x="1709.6252"
         y="312.79593">Tags</tspan></text>
    <rect
       style="fill:#cc0000;fill-opacity:1;stroke-width:10;stop-color:#000000"
       id="rect951"
       width="29.381544"
       height="155.43414"
       x="1603.7672"
       y="424.59192" />
    <rect
       style="fill:#6699ff;fill-opacity:1;stroke-width:10;stop-color:#000000"
       id="rect951-5"
       width="29.381544"
       height="155.43414"
       x="1786.5424"
       y="424.59195" />
    <rect
       style="fill:#ff00ff;fill-opacity:1;stroke-width:10;stop-color:#000000"
       id="rect951-3"
       width="29.381544"
       height="155.43414"
       x="1847.4674"
       y="424.59195" />
    <rect
       style="fill:#669900;fill-opacity:1;stroke-width:10;stop-color:#000000"
       id="rect951-56"
       width="29.381544"
       height="155.43414"
       x="1725.6173"
       y="424.59195" />
    <rect
       style="fill:#ff6600;fill-opacity:1;stroke-width:11.8019;stop-color:#000000"
       id="rect951-2"
       width="29.381544"
       height="216.49593"
       x="1664.6923"
       y="363.53012" />
    <rect
       style="fill:#e0e0e0;fill-opacity:1;stroke-width:4.50973;stop-color:#000000"
       id="rect868-6-7-9"
       width="359.38431"
       height="202.02299"
       x="1560.6157"
       y="877.97699"
       inkscape:label="MetaPage" />
    <circle
       style="fill:#808080;fill-opacity:1;stroke-width:10;stop-color:#000000"
       id="path1077"
       cx="502.26196"
       cy="474.62738"
       r="18.83481" />
    <circle
       style="fill:#808080;fill-opacity:1;stroke-width:10;stop-color:#000000"
       id="path1077-7"
       cx="502.26196"
       cy="803.72388"
       r="18.83481" />
    <rect
       style="fill:none;fill-opacity:1;stroke:#00cc00;stroke-width:3;stroke-miterlimit:4;stroke-dasharray:none;stop-color:#000000"
       id="rect1094"
       width="189.94133"
       height="73.654381"
       x="1645.3372"
       y="942.16132" />
    <text
       xml:space="preserve"
       style="font-style:normal;font-weight:normal;font-size:29.3333px;line-height:1.25;font-family:sans-serif;fill:#00cc00;fill-opacity:1;stroke:none"
       x="1684.692"
       y="989.51917"
       id="text1098"><tspan
         sodipodi:role="line"
         id="tspan1096"
         x="1684.692"
         y="989.51917">SUBMIT</tspan></text>
  </g>
  <g
     inkscape:label="PageLayout"
     inkscape:groupmode="layer"
     id="layer1"
     style="display:inline;opacity:1"
     sodipodi:insensitive="true">
    <g
       id="g1297"
       inkscape:label="NavRail">
      <rect
         style="fill:#f5f5f5;fill-opacity:1;stroke:#cccccc;stroke-width:1;stroke-miterlimit:4;stroke-dasharray:none;stroke-opacity:1;stop-color:#000000"
         id="rect1178"
         width="91.675598"
         height="1080"
         x="0"
         y="0"
         sodipodi:insensitive="true"
         inkscape:label="rail" />
      <g
         id="g1395"
         inkscape:label="addEntry">
        <circle
           style="display:inline;fill:#303f9f;fill-opacity:1;stroke:none;stroke-width:1;stroke-miterlimit:4;stroke-dasharray:none;stroke-opacity:1;filter:url(#filter1293);stop-color:#000000"
           id="path1185"
           cx="45.837799"
           cy="142.54272"
           r="34.115467"
           inkscape:label="add" />
        <path
           style="fill:#030303;stroke:none;stroke-width:0.162134"
           d="m 34.161051,126.08617 v 1.9456 h -3.404805 v 30.96751 h 25.292838 v -5.18827 h -1.621339 v 3.56694 H 37.890121 c -1.047071,0 -4.722381,0.55855 -5.345899,-0.37582 -0.788926,-1.18229 -0.166641,-4.53375 -0.166641,-5.94739 v -15.72696 c 0,-2.05485 -0.941655,-5.67257 1.78347,-5.67467 v 1.45919 h 1.945603 v -1.45919 h 1.945602 v 1.45919 h 1.945608 v -1.45919 h 2.269869 v 1.45919 h 1.783465 v -1.45919 h 2.432004 v 1.45919 h 1.9456 v -1.45919 h 2.107743 v 1.45919 h 1.9456 v -1.45919 h 1.9456 v 7.78241 h 1.621339 v -9.40375 h -3.566939 v -1.9456 h -1.9456 v 1.9456 h -2.107743 v -1.9456 h -1.9456 v 1.9456 h -2.432004 v -1.9456 h -1.783465 v 1.9456 h -2.269869 v -1.9456 h -1.945608 v 1.9456 h -1.945602 v -1.9456 h -1.945603 m 0.972801,8.75521 v 1.94561 h 17.186159 v -1.94561 H 35.133852 m 20.915232,5.51254 v 0.16213 l 3.891208,3.56694 c 1.787358,-1.38056 0.825418,-2.4868 -0.486404,-3.72331 -0.513637,-0.48414 -1.166871,-1.17377 -1.943169,-1.09427 -0.637838,0.0653 -1.055008,0.65772 -1.461635,1.08851 m -20.915232,-0.9728 v 1.9456 h 17.186159 v -1.9456 H 35.133852 m 11.835754,15.07843 4.363011,-1.02372 2.636291,-2.70536 5.48498,-5.99894 c -0.664745,-0.82445 -2.776214,-3.37303 -3.891208,-3.37125 -1.032462,0.002 -2.415623,2.19254 -3.074211,2.88484 -1.563941,1.64371 -3.992379,3.62305 -4.981067,5.67469 -0.559039,1.16006 -0.527095,3.25547 -0.537796,4.53974 M 35.133852,143.75873 v 2.10773 h 13.132824 v -2.10773 H 35.133852 m 0,4.53974 v 2.10773 h 10.052281 v -2.10773 H 35.133852 m 12.808554,2.10773 2.918401,2.75628 c -2.047097,0.39706 -4.143805,-0.2064 -2.918401,-2.75628 m -12.808554,2.26987 v 2.10774 h 9.241616 v -2.10774 z"
           id="path1331"
           inkscape:label="write entry" />
      </g>
      <path
         style="fill:#000000;stroke-width:0.260357"
         d="m 39.749334,254.2502 c -4.995807,-1.61953 -9.381284,-3.16711 -9.745516,-3.43904 -1.611996,-1.20352 -2.366932,-4.68516 -1.505182,-6.94161 0.38524,-1.00875 0.388246,-1.20829 0.03104,-2.06318 -0.572719,-1.37071 -0.520127,-4.96141 0.09229,-6.30047 0.261965,-0.57278 3.608097,-4.52695 7.435858,-8.78704 5.76991,-6.4216 7.07646,-7.74562 7.643428,-7.74562 1.019758,0 19.11703,4.14891 19.506246,4.47192 0.885073,0.73455 0.353957,1.51532 -6.684612,9.82666 -3.860946,4.5591 -7.191166,8.355 -7.400494,8.43533 -0.209329,0.0803 -4.026019,-0.95526 -8.48154,-2.3013 -8.365285,-2.5272 -9.060309,-2.64127 -9.477004,-1.55539 -0.287416,0.749 -0.179798,2.61357 0.17918,3.10451 0.299457,0.40952 5.098338,1.98841 16.617315,5.46727 l 1.210581,0.36562 5.687246,-7.03226 c 4.31296,-5.33295 5.668095,-7.17845 5.607964,-7.63726 -0.138074,-1.05366 0.457412,-2.70857 1.134186,-3.152 0.59066,-0.38702 0.69219,-0.38603 1.300731,0.0127 0.586271,0.38414 0.656669,0.59849 0.629775,1.91753 -0.01669,0.81677 -0.0109,1.66078 0.01278,1.87558 0.02368,0.21479 -0.141426,1.22705 -0.366915,2.24944 -0.316165,1.43358 -0.349545,2.14844 -0.145869,3.12428 0.694325,3.32665 1.311232,2.18755 -6.010612,11.09824 -6.118861,7.44666 -6.630773,7.99982 -7.381222,7.97615 -0.443506,-0.014 -4.893856,-1.35052 -9.889656,-2.97006 z m 14.94131,-6.68405 c 2.935525,-3.59029 5.427558,-6.68269 5.537852,-6.87201 0.23977,-0.41157 -0.05487,-2.50711 -0.337391,-2.39947 -0.10849,0.0413 -2.214058,2.56732 -4.679033,5.6133 -2.464975,3.04597 -4.703815,5.65697 -4.975198,5.80221 -0.383293,0.20513 -2.484705,-0.34818 -9.414755,-2.47894 -4.906724,-1.50867 -9.053303,-2.74302 -9.214603,-2.74302 -0.743196,0 -0.855008,2.76321 -0.147176,3.63734 0.340676,0.42073 2.650462,1.27812 8.787039,3.26173 4.578683,1.48002 8.500616,2.69449 8.715409,2.6988 0.2148,0.005 2.792331,-2.92966 5.727856,-6.51994 z m -1.658868,-19.66526 c 0.486605,-0.53126 0.84659,-1.08778 0.799967,-1.2367 -0.09719,-0.31043 -9.266804,-2.68538 -10.504745,-2.72076 -0.631406,-0.018 -1.009024,0.1928 -1.647338,0.9198 -0.610946,0.69584 -0.751952,1.02019 -0.537625,1.23669 0.275074,0.27789 9.4874,2.67531 10.519386,2.73758 0.267084,0.0161 0.883736,-0.40536 1.370355,-0.93661 z"
         id="path1361"
         inkscape:label="journal" />
      <path
         style="fill:#000000;stroke-width:0.0309929"
         d="m 43.782167,334.02142 c -0.01148,-0.0115 -0.02089,-1.20049 -0.02089,-2.64224 v -2.62133 l -1.317206,1.31693 -1.317205,1.31693 -1.487676,-1.48743 -1.487679,-1.48743 2.805041,-2.80518 2.805046,-2.80517 -0.0079,-2.90395 -0.0079,-2.90394 -2.506824,1.4475 -2.506819,1.44751 -1.026421,3.78636 c -0.564531,2.08248 -1.034416,3.79433 -1.044187,3.80411 -0.01522,0.0152 -3.956199,-0.98565 -3.981793,-1.01125 -0.0051,-0.005 0.205393,-0.82435 0.467742,-1.82055 0.262351,-0.99623 0.471147,-1.81717 0.463996,-1.82432 -0.0071,-0.008 -1.060954,0.59009 -2.34178,1.32718 -1.940103,1.11652 -2.335306,1.3331 -2.367907,1.2977 -0.04741,-0.0515 -2.032271,-3.52847 -2.030063,-3.55616 8.27e-4,-0.0107 1.020815,-0.59832 2.266579,-1.30573 1.245762,-0.70741 2.285065,-1.30067 2.309563,-1.31835 0.03309,-0.0238 -0.404178,-0.15417 -1.700957,-0.50677 -0.960026,-0.26104 -1.754859,-0.48366 -1.766295,-0.49473 -0.01548,-0.015 0.946389,-3.82253 1.002625,-3.96893 0.0055,-0.0142 1.722319,0.42435 3.815226,0.97462 l 3.805288,1.0005 2.508888,-1.44609 c 1.379889,-0.79535 2.508887,-1.45306 2.508887,-1.46158 0,-0.008 -1.128998,-0.66625 -2.508887,-1.46159 l -2.508888,-1.44609 -3.805288,1.00049 c -2.092907,0.55028 -3.80976,0.98886 -3.815226,0.97463 -0.05624,-0.14641 -1.018094,-3.95397 -1.002625,-3.96894 0.01144,-0.0111 0.806269,-0.23368 1.766295,-0.49473 1.296779,-0.35259 1.734052,-0.48287 1.700957,-0.50676 -0.0245,-0.0177 -1.063801,-0.61094 -2.309563,-1.31835 -1.245764,-0.70741 -2.265723,-1.29499 -2.266579,-1.30573 -0.0022,-0.0277 1.982649,-3.50466 2.030063,-3.55616 0.0326,-0.0354 0.427804,0.18118 2.367907,1.29769 1.280826,0.73711 2.334628,1.33434 2.34178,1.32719 0.0071,-0.008 -0.201645,-0.82809 -0.463996,-1.82431 -0.262349,-0.99622 -0.472831,-1.81548 -0.467742,-1.82057 0.02559,-0.0256 3.966566,-1.02647 3.981793,-1.01124 0.0098,0.01 0.479656,1.72163 1.044187,3.80412 l 1.026421,3.78635 2.506819,1.4475 2.506824,1.44751 0.0079,-2.90395 0.0079,-2.90395 -2.805046,-2.80516 -2.805041,-2.80517 1.487679,-1.48744 1.487676,-1.48743 1.317028,1.31676 1.31703,1.31674 0.0079,-2.63408 0.0079,-2.63407 h 2.061027 2.061022 l 0.0079,2.63407 0.0079,2.63408 1.317028,-1.31674 1.317028,-1.31676 1.487678,1.48743 1.487677,1.48744 -2.805042,2.80517 -2.805041,2.80516 0.0079,2.90395 0.0079,2.90395 2.506821,-1.44751 2.506821,-1.4475 1.026419,-3.78635 c 0.564532,-2.08249 1.034418,-3.79435 1.04419,-3.80412 0.01522,-0.0153 3.956202,0.98566 3.981791,1.01124 0.0052,0.005 -0.205391,0.82435 -0.467741,1.82057 -0.262352,0.99622 -0.471147,1.81716 -0.463996,1.82431 0.0071,0.008 1.060953,-0.59008 2.341779,-1.32719 1.940104,-1.11651 2.335309,-1.33309 2.367907,-1.29769 0.04741,0.0516 2.032269,3.52846 2.030063,3.55616 -8.27e-4,0.0107 -1.020815,0.59832 -2.266576,1.30573 -1.245764,0.70741 -2.285066,1.30067 -2.309566,1.31835 -0.03309,0.0239 0.404178,0.15417 1.700957,0.50676 0.960026,0.26105 1.754858,0.48367 1.766295,0.49473 0.01548,0.015 -0.94639,3.82253 -1.002621,3.96894 -0.0055,0.0142 -1.722325,-0.42435 -3.81523,-0.97463 l -3.805288,-1.00049 -2.508888,1.44609 c -1.379887,0.79534 -2.508888,1.45306 -2.508888,1.46159 0,0.008 1.129001,0.66623 2.508888,1.46158 l 2.508888,1.44609 3.805288,-1.0005 c 2.092905,-0.55027 3.80976,-0.98885 3.81523,-0.97462 0.05623,0.1464 1.018093,3.95398 1.002621,3.96893 -0.01144,0.0111 -0.806269,0.23369 -1.766295,0.49473 -1.296779,0.3526 -1.734051,0.48288 -1.700957,0.50677 0.0245,0.0177 1.063802,0.61094 2.309566,1.31835 1.245761,0.70741 2.26572,1.29499 2.266576,1.30573 0.0022,0.0277 -1.982648,3.50466 -2.030063,3.55616 -0.0326,0.0354 -0.427803,-0.18118 -2.367907,-1.2977 -1.280826,-0.73709 -2.334626,-1.33433 -2.341779,-1.32718 -0.0071,0.008 0.201644,0.82809 0.463996,1.82432 0.26235,0.9962 0.472833,1.81546 0.467741,1.82055 -0.02558,0.0256 -3.966565,1.02647 -3.981791,1.01125 -0.0098,-0.01 -0.479658,-1.72163 -1.04419,-3.80411 l -1.026419,-3.78636 -2.506821,-1.44751 -2.506821,-1.4475 -0.0079,2.90394 -0.0079,2.90395 2.805041,2.80517 2.805042,2.80518 -1.487677,1.48743 -1.487678,1.48743 -1.317028,-1.31675 -1.317028,-1.31676 -0.0079,2.63408 -0.0079,2.63409 -2.047891,0.008 c -1.12634,0.005 -2.057287,-0.002 -2.068772,-0.0129 z"
         id="path1391"
         inkscape:label="snowballs" />
    </g>
    <g
       id="g1183"
       inkscape:label="MDToobar">
      <rect
         style="fill:#000000;fill-opacity:1;stroke:none;stroke-width:1.94623;filter:url(#filter1152);stop-color:#000000"
         id="rect45"
         width="1920.1022"
         height="86.707817"
         x="-0.051136464"
         y="-0.051136464"
         inkscape:label="MDToolbar" />
    </g>
  </g>
  <g
     id="layer2"
     inkscape:label="Palette"
     style="display:inline"
     transform="translate(2713.062,47.251709)"
     sodipodi:insensitive="true">
    <rect
       style="display:inline;fill:#000000;fill-opacity:1;stroke-width:10;stop-color:#000000"
       id="rect1166"
       width="253.6178"
       height="987.62592"
       x="-479.73126"
       y="23.57547"
       inkscape:label="black" />
    <rect
       style="display:inline;fill:#1a237e;fill-opacity:1;stroke-width:10;stop-color:#000000"
       id="rect1081"
       width="123.3241"
       height="123.3241"
       x="-414.77301"
       y="91.403702"
       inkscape:label="primary_dark" />
    <rect
       style="display:inline;fill:#303f9f;fill-opacity:1;stroke-width:10;stop-color:#000000"
       id="rect1081-2"
       width="123.3241"
       height="123.3241"
       x="-414.77301"
       y="214.7298"
       inkscape:label="primary_color" />
    <rect
       style="display:inline;fill:#7986cb;fill-opacity:1;stroke-width:10;stop-color:#000000"
       id="rect1081-9"
       width="123.3241"
       height="123.3241"
       x="-414.77301"
       y="338.05591"
       inkscape:label="primary_light" />
    <rect
       style="display:inline;fill:#ffffff;fill-opacity:1;stroke-width:10;stop-color:#000000"
       id="rect1081-1"
       width="123.3241"
       height="123.3241"
       x="-414.77301"
       y="461.38"
       inkscape:label="bg_light" />
    <rect
       style="display:inline;fill:#fafafa;fill-opacity:1;stroke-width:10;stop-color:#000000"
       id="rect1081-2-2"
       width="123.3241"
       height="123.3241"
       x="-414.77301"
       y="584.70612"
       inkscape:label="bg_normal" />
    <rect
       style="display:inline;fill:#f5f5f5;fill-opacity:1;stroke-width:10;stop-color:#000000"
       id="rect1081-9-7"
       width="123.3241"
       height="123.3241"
       x="-414.77301"
       y="708.03229"
       inkscape:label="bg_dark" />
    <rect
       style="display:inline;fill:#e0e0e0;fill-opacity:1;stroke-width:10;stop-color:#000000"
       id="rect1081-9-7-0"
       width="123.3241"
       height="123.3241"
       x="-414.77301"
       y="831.35638"
       inkscape:label="bg_darkest" />
  </g>
</svg>
